<svg xmlns="http://www.w3.org/2000/svg" viewBox="0 0 296.37 289.21"><defs><style>.cls-1{fill:#fff;}</style></defs><g id="Layer_2" data-name="Layer 2"><g id="Layer_3" data-name="Layer 3"><path class="cls-1" d="M296.37,0c-.13,2.37-.16,4.61-.4,6.82a51.56,51.56,0,0,1-7.19,21.91C282.35,39.12,273.09,46,261.89,50.52a81.57,81.57,0,0,1-26.65,5.77c-4.05.2-8.11.35-12.17.35q-108.69,0-217.38,0c-1.1,0-1.66-.16-1.62-1.43C4.45,42.84,7.87,31.51,16,21.89c6.74-8,15.35-13.22,25.07-16.73A82.56,82.56,0,0,1,64.94.37C68.52.17,72.11,0,75.69,0Q185,0,294.38,0Z"/><path class="cls-1" d="M194.05,117.69c-.32,3.41-.46,6.67-1,9.87a48.93,48.93,0,0,1-15.95,29.8c-7.3,6.54-15.89,10.71-25.25,13.39a91.75,91.75,0,0,1-25.3,3.5q-62.79.08-125.58,0H0c.13-2.27.19-4.45.41-6.62a51.22,51.22,0,0,1,8.25-23.73c6.3-9.44,15.1-15.73,25.45-20a79.65,79.65,0,0,1,24.61-5.75q6-.45,12-.47,60.66,0,121.32,0Z"/><path class="cls-1" d="M.06,256.5A32.76,32.76,0,1,1,32.9,289.21,32.69,32.69,0,0,1,.06,256.5Z"/></g></g></svg>