<svg xmlns="http://www.w3.org/2000/svg" viewBox="0 0 205.94 289.21"><defs><style>.cls-1{fill:#fff;}</style></defs><g id="Layer_2" data-name="Layer 2"><g id="Layer_3" data-name="Layer 3"><path class="cls-1" d="M0,288.58c1.51-2.65,3-5.29,4.54-7.95q3.9-6.9,7.75-13.81c2-3.53,3.89-7.11,5.87-10.64,2.53-4.52,5.12-9,7.66-13.54,2-3.49,3.88-7,5.83-10.5,2.56-4.56,5.14-9.11,7.69-13.68,1.49-2.67,2.94-5.37,4.44-8,2.53-4.52,5.1-9,7.64-13.54,1.52-2.71,3-5.46,4.5-8.17,2.62-4.69,5.27-9.36,7.9-14.05.65-1.15,1.23-2.33,1.87-3.49A3,3,0,0,1,66.79,170c-.08.93-.11,1.88-.23,2.81-.35,2.76-.77,5.51-1.11,8.27-.25,2-.39,4.06-.62,6.08s-.53,4.12-.78,6.18c-.23,1.88-.42,3.76-.65,5.64-.27,2.2-.58,4.4-.83,6.6-.23,2-.39,4.06-.62,6.08s-.53,4.12-.78,6.18c-.23,1.88-.42,3.76-.65,5.64-.27,2.2-.58,4.4-.83,6.6-.23,2-.39,4.06-.62,6.08s-.53,4.12-.78,6.18c-.23,1.88-.42,3.76-.65,5.64-.27,2.2-.57,4.4-.84,6.6-.22,1.84-.38,3.68-.6,5.51-.27,2.2-.57,4.4-.84,6.6-.22,1.83-.43,3.67-.59,5.5a1.07,1.07,0,0,1-.93,1.17c-3.84,1.07-7.65,2.26-11.47,3.4l-18.5,5.49q-11.13,3.3-22.26,6.64a2.28,2.28,0,0,0-.45.26C.8,288.91-.08,289.72,0,288.58Z"/><path class="cls-1" d="M71.33,153.6c-2.48-7.55-4.85-14.79-7.22-22L54.87,103.3c-1.51-4.65-3-9.31-4.51-14-1.43-4.42-2.88-8.85-4.32-13.27s-2.89-8.85-4.33-13.27L37.12,48.72Q35,42.09,32.79,35.45q-2.29-7-4.6-14.07L23.87,8.1C23,5.49,22.18,2.87,21.33.25L21.59,0,125.4,85.45Z"/><path class="cls-1" d="M127.94,89.3c1.64,3.53,3.22,6.89,4.77,10.27,2.68,5.82,5.33,11.65,8,17.48,1.38,3,2.81,6,4.2,9,2.89,6.25,5.75,12.51,8.65,18.75,3.29,7.1,6.61,14.19,9.9,21.29.25.55.42,1.13.72,2L74.65,156.47Z"/><path class="cls-1" d="M161,172.53,64.51,232l-.33-.25c.1-.63.23-1.26.3-1.89.22-1.88.39-3.77.61-5.65.27-2.25.58-4.5.83-6.75.23-2,.39-4,.62-5.94.25-2.15.57-4.3.82-6.46.23-1.88.4-3.77.62-5.65.26-2.25.57-4.49.82-6.75.23-2,.39-4.05.62-6.08s.53-4.12.78-6.18.42-3.86.65-5.78c.27-2.25.59-4.5.83-6.75s.47-4.71.7-7.15l88.55,11.41Z"/><path class="cls-1" d="M167.49,164.36l-21-45.48,44.88-22,.33.23q-11.9,33.68-23.77,67.36Z"/><path class="cls-1" d="M195.32,101.06l10.62,50.38-.36.15c-.72-.57-1.48-1.11-2.16-1.73-2.64-2.41-5.23-4.88-7.88-7.28q-5-4.53-10.14-9c-1.38-1.2-1.45-1.27-.81-3.09q4.33-12.45,8.71-24.89c.54-1.53,1.14-3,1.71-4.56Z"/></g></g></svg>