<svg xmlns="http://www.w3.org/2000/svg" viewBox="0 0 871.54 216.09"><defs><style>.cls-1{opacity:0.9;}.cls-2{fill:#fff;}</style></defs><g id="Layer_2" data-name="Layer 2"><g id="Layer_3" data-name="Layer 3"><g id="Layer_2-2" data-name="Layer 2"><g id="Layer_1-2" data-name="Layer 1-2"><g class="cls-1"><path class="cls-2" d="M356.61,96.55l11.18-22.46h18.75l-19,33.53L387,141.93H368.21l-11.34-23-11.36,23H326.75l19.5-34.31-19-33.53H346Zm59.74,21.22h-8.89v24H391.2V74.09h26.64c8.14,0,14.31,1.73,18.76,5.44a18.29,18.29,0,0,1,6.91,15,22.26,22.26,0,0,1-3,11.85,21.08,21.08,0,0,1-8.89,7.65l14.07,27.39v.74H428.2Zm-8.64-12.57h10.37a8.46,8.46,0,0,0,6.91-2.48,10.22,10.22,0,0,0,2.46-6.91A9.08,9.08,0,0,0,425,88.9a8.76,8.76,0,0,0-6.91-2.46H407.71Zm61.23,13.56v23H452.68V74.09h27.16a30.72,30.72,0,0,1,13.82,3A23.18,23.18,0,0,1,503,85.19a21.69,21.69,0,0,1,3.21,12.11A19.56,19.56,0,0,1,499,113.09c-4.69,4-11.17,5.93-19.5,5.93h-10.6Zm0-12.58h10.6a9,9,0,0,0,7.17-2.47A8.27,8.27,0,0,0,489.17,97a11,11,0,0,0-2.46-7.64,8.64,8.64,0,0,0-6.91-3H468.94Zm83.83,23.2h28.44V142H536.32V74.09h16.3v55.29Zm76.52-16.29H603.7v16.29h30.36V142H587.49V74.09H634.4V86.68H604V101h25.43Zm10.36,28.64V74.09h22a33.37,33.37,0,0,1,16.47,4.15,27.93,27.93,0,0,1,11.18,11.61,36.54,36.54,0,0,1,4.21,16.54v3.2a34.59,34.59,0,0,1-4,16.77,30,30,0,0,1-27.16,15.8H639.74Zm16.3-55v42.7h5.59a13,13,0,0,0,11-4.94q3.74-5.16,3.73-14.81v-3q0-10-3.73-14.81a13.17,13.17,0,0,0-11.17-4.94H655.9ZM756,133.57a26.65,26.65,0,0,1-11.18,6.67,47.27,47.27,0,0,1-16,2.47c-8.89,0-16.06-2.72-21.24-8.16s-8.14-13-8.64-22.7v-5.93a42.84,42.84,0,0,1,3.46-17.51,27.41,27.41,0,0,1,10.12-11.6,28.79,28.79,0,0,1,15.31-4c8.39,0,15.05,2,19.75,5.92s7.45,9.63,8.14,17.27h-15.8a12.66,12.66,0,0,0-3.72-8.14,11.22,11.22,0,0,0-7.79-2.46,11,11,0,0,0-9.63,5.18,27.4,27.4,0,0,0-3.45,14.9v4.19c0,6.67,1.23,11.85,3.45,15.32s5.92,5.17,10.86,5.17a14,14,0,0,0,9.63-3V116.63H727.9V105.46h27.64v28.11Zm50.61-20.49H781v16.28H811.3V142H764.72V74.09h46.91V86.68H781.27V101h25.67v12.1Zm35.79,4.67h-8.89v24H817V74.09h26.66c8.15,0,14.32,1.73,18.75,5.44a18.26,18.26,0,0,1,6.92,15,22.18,22.18,0,0,1-3,11.85,21,21,0,0,1-8.88,7.65l14.08,27.39v.74H854Zm-8.89-12.57h10.36a8.48,8.48,0,0,0,6.91-2.48,10.27,10.27,0,0,0,2.4-6.89,9.17,9.17,0,0,0-2.46-6.91,8.75,8.75,0,0,0-6.85-2.46H833.5Z"/><path class="cls-2" d="M66,13.41h5.21V0H66A42.08,42.08,0,0,0,23.84,42V72.65A25.33,25.33,0,0,1,0,98l.37,6.7L0,111.4a25.32,25.32,0,0,1,23.84,25.33v35.21a44.08,44.08,0,0,0,44,44.15V202.68a30.57,30.57,0,0,1-30.55-30.55v-35.4a38.7,38.7,0,0,0-16.95-32,38.93,38.93,0,0,0,17-32V42.1A28.82,28.82,0,0,1,66,13.41Z"/><path class="cls-2" d="M220.94,13.41h-5.22V0h5.22a42,42,0,0,1,41.91,42.1V72.65A25.34,25.34,0,0,0,286.69,98l-.37,6.7.37,6.71a25.33,25.33,0,0,0-23.84,25.33v35.21a44.08,44.08,0,0,1-44,44.15V202.68a30.57,30.57,0,0,0,30.55-30.55v-35.4a38.7,38.7,0,0,1,16.95-32,38.93,38.93,0,0,1-16.95-32V42.1a28.55,28.55,0,0,0-28.39-28.69Z"/><path class="cls-2" d="M192.25,54h19.93L170.64,93a40.54,40.54,0,0,1-54.4,0L74.7,54H94.63l31.49,29.44a25.49,25.49,0,0,0,34.46,0Z"/><path class="cls-2" d="M94.45,162.07H74.51L116.24,123a40.14,40.14,0,0,1,54.4,0l41.73,39.12H192.43l-31.66-29.81a25.5,25.5,0,0,0-34.47,0Z"/></g></g></g></g></g></svg>